<?xml version="1.0" encoding="utf-8"?>
<!-- Generator: Adobe Illustrator 23.0.2, SVG Export Plug-In . SVG Version: 6.00 Build 0)  -->
<svg version="1.1" id="Layer_1" xmlns="http://www.w3.org/2000/svg" xmlns:xlink="http://www.w3.org/1999/xlink" x="0px" y="0px"
	 viewBox="0 0 1210.1 411.4" style="enable-background:new 0 0 1210.1 411.4;" xml:space="preserve">
<style type="text/css">
	.st0{fill:#00A9D5;}
</style>
<title>sedan</title>
<g id="Back">
	<path class="st0" d="M1185.9,166.3c12.7-83.8,4.3-70.2-26-71.1c-35.4-1.3-97.6-0.8-97.6-0.8l-53.8-27.2l-21.7,145.6
		c0,0,70.1,7.7,73.8,100.1v0.8c2.6,9.8,91,9.1,91.4-0.8c9.3-8.7,30.3-8.8,34.7-16.9C1218.4,230.4,1185.9,166.3,1185.9,166.3z"/>
</g>
<g id="Front">
	<path id="Front-2" class="st0" d="M139.4,284.4c7-29.5,35.6-54.3,35.6-54.3c69.8-52.7,131.8,0,131.8,0h77.5l-46.2-105.4
		c-0.6,0.3-1.3,0.5-2,0.7C-10,160.6,16.8,228.2,13.8,234.6c0,52.7,0,78.9,20.5,83.4s26.8,17.6,26.8,17.6h77.4
		C135.3,318.6,135.6,301.2,139.4,284.4z"/>
</g>
<g id="UCarriage">
	<path id="UCarriage-2" class="st0" d="M875.4,243.7H321.6c0,0,26.2,18.6,25.4,91.8h509.7C855.5,317.9,854.7,272.3,875.4,243.7z"/>
</g>
<g id="CCabin">
	<path id="CCabin-2" class="st0" d="M990.3,57.9C904.8,6.3,794.8,9.8,794.8,9.8H583.2C504.2,17.1,446.5,59,446.5,59
		c-50.4,33.4-78.3,50-93.4,58.3l49,112.9h492.2c43.4-34.1,75.2-20.9,75.2-20.9l23.7-149.9L990.3,57.9z M658.6,149.1
		c-85.2,6.9-243.5,8-243.5,8s-9.5-4.6-5.7-13.5c6.4-14.9,27.7-41.9,95.7-80.2c60.8-31.8,122.4-36.6,174.5-35
		C679,67.1,669.9,119.9,658.6,149.1z M897.2,143.5c-58,7.7-130.9,7.6-204.5,4.5c-6.8-34.2-1.8-86.6,7-113c2.5-10.4,103.9-7,139.1,2
		c40.6,14.4,54.9,53.8,66,100C904,139.4,899.5,142.8,897.2,143.5L897.2,143.5z"/>
</g>
<g id="BWheel">
	
		<ellipse id="BWheel-2" transform="matrix(0.7071 -0.7071 0.7071 0.7071 60.9119 768.3943)" class="st0" cx="958" cy="310.7" rx="87.6" ry="87.6"/>
</g>
<g id="FWheel">
	<circle id="FWheel-2" class="st0" cx="241.4" cy="310.4" r="87.6"/>
</g>
</svg>
